<svg width="20" height="19" viewBox="0 0 20 19" fill="none" xmlns="http://www.w3.org/2000/svg">
<path d="M19.1382 9.491C19.1382 4.43556 15.0391 0.339844 9.98709 0.339844C4.93165 0.339844 0.835938 4.43556 0.835938 9.491C0.835938 14.0574 4.18126 17.8437 8.55722 18.5295V12.1368H6.2334V9.49157H8.55722V7.47431C8.55722 5.18138 9.92132 3.91509 12.0124 3.91509C13.0138 3.91509 14.0622 4.09353 14.0622 4.09353V6.34529H12.9063C11.7716 6.34529 11.417 7.05164 11.417 7.77516V9.491H13.9547L13.5469 12.1363H11.417V18.5289C15.7895 17.8431 19.1382 14.0569 19.1382 9.49043V9.491Z" fill="white"/>
</svg>
