<svg width="17" height="17" viewBox="0 0 17 17" fill="none" xmlns="http://www.w3.org/2000/svg">
<path d="M13.1572 9.84215C12.9233 10.6558 12.4598 11.3847 11.8222 11.9416C11.1845 12.4984 10.3998 12.8596 9.56212 12.9819C8.90704 13.0769 8.2395 13.0386 7.5996 12.8692C6.95969 12.6999 6.3606 12.403 5.83829 11.9963C5.31599 11.5897 4.88124 11.0817 4.56015 10.5028C4.23905 9.92395 4.03823 9.28619 3.96975 8.6278C3.9167 7.96683 4.00136 7.30204 4.21839 6.67546C4.43541 6.04888 4.78008 5.47414 5.23059 4.98758C5.68111 4.50103 6.22767 4.11323 6.83573 3.84872C7.44379 3.58421 8.10012 3.44874 8.76321 3.45086C9.38457 3.45174 10.0001 3.57104 10.5767 3.80238C10.6675 3.84315 10.7703 3.84855 10.8649 3.81751C10.9595 3.78648 11.039 3.72125 11.088 3.63461L12.2385 1.5175C12.2632 1.46874 12.2781 1.41556 12.2823 1.36103C12.2865 1.3065 12.2798 1.25168 12.2627 1.19972C12.2457 1.14776 12.2185 1.09969 12.1828 1.05825C12.1471 1.01682 12.1036 0.982837 12.0547 0.958263C10.8194 0.398956 9.462 0.163301 8.11043 0.273492C6.75885 0.383683 5.45757 0.836095 4.32914 1.58812C3.20071 2.34014 2.28227 3.36702 1.66033 4.57204C1.03838 5.77706 0.7334 7.12056 0.774109 8.47601C0.852838 10.4892 1.68037 12.4004 3.09461 13.8353C4.50884 15.2703 6.40786 16.1255 8.41968 16.2334C10.5271 16.3269 12.586 15.583 14.1471 14.1641C15.7082 12.7453 16.6447 10.7665 16.7523 8.65976C16.7523 8.49998 16.7523 7.58123 16.7523 7.06194C16.7503 6.95664 16.7075 6.85622 16.6331 6.78174C16.5586 6.70727 16.4582 6.66453 16.3529 6.66248H9.16267C9.05672 6.66248 8.95512 6.70457 8.88021 6.77948C8.8053 6.85439 8.76321 6.956 8.76321 7.06194V9.45867C8.76321 9.56461 8.8053 9.66621 8.88021 9.74113C8.95512 9.81604 9.05672 9.85812 9.16267 9.85812H13.1572" fill="white"/>
</svg>
