<svg width="17" height="16" viewBox="0 0 17 16" fill="none" xmlns="http://www.w3.org/2000/svg">
<path d="M9.32241 0.000984266C9.90617 -0.0012558 10.4899 0.00461119 11.0735 0.0185834L11.2287 0.0241831C11.4079 0.0305828 11.5847 0.0385823 11.7983 0.0481819C12.6494 0.0881798 13.2302 0.222573 13.7398 0.420163C14.2678 0.623352 14.7125 0.898538 15.1573 1.34332C15.564 1.74298 15.8787 2.22643 16.0797 2.76004C16.2773 3.26962 16.4116 3.85119 16.4516 4.70234C16.4612 4.91513 16.4692 5.09272 16.4756 5.27191L16.4804 5.42711C16.4947 6.01043 16.5008 6.59392 16.4988 7.17742L16.4996 7.77419V8.82213C16.5016 9.40589 16.4955 9.98965 16.4812 10.5732L16.4764 10.7284C16.47 10.9076 16.462 11.0844 16.4524 11.298C16.4124 12.1492 16.2765 12.7299 16.0797 13.2395C15.8794 13.7737 15.5646 14.2575 15.1573 14.657C14.7573 15.0637 14.2736 15.3784 13.7398 15.5794C13.2302 15.777 12.6494 15.9114 11.7983 15.9514C11.5847 15.961 11.4079 15.969 11.2287 15.9754L11.0735 15.9802C10.4899 15.9944 9.90617 16.0005 9.32241 15.9986L8.72564 15.9994H7.67849C7.09473 16.0013 6.51097 15.9952 5.92738 15.981L5.77219 15.9762C5.58229 15.9693 5.39243 15.9613 5.20262 15.9522C4.35146 15.9122 3.77069 15.7762 3.26032 15.5794C2.72649 15.3789 2.24296 15.0641 1.84359 14.657C1.43645 14.2573 1.12141 13.7735 0.92044 13.2395C0.72285 12.7299 0.588457 12.1492 0.548459 11.298C0.53955 11.1082 0.53155 10.9183 0.52446 10.7284L0.520461 10.5732C0.505712 9.98966 0.499045 9.4059 0.500462 8.82213V7.17742C0.498229 6.59393 0.504096 6.01043 0.518061 5.42711L0.52366 5.27191C0.53006 5.09272 0.53806 4.91513 0.547659 4.70234C0.587657 3.85039 0.72205 3.27042 0.91964 2.76004C1.12073 2.22617 1.43638 1.74285 1.84439 1.34412C2.24349 0.936738 2.72672 0.621411 3.26032 0.420163C3.77069 0.222573 4.35066 0.0881798 5.20262 0.0481819L5.77219 0.0241831L5.92738 0.0201834C6.5107 0.00544242 7.09419 -0.00122462 7.67769 0.000184365L9.32241 0.000984266ZM8.50005 4.00078C7.97008 3.99328 7.44391 4.09119 6.95211 4.28882C6.46031 4.48644 6.0127 4.77984 5.63527 5.15196C5.25785 5.52409 4.95815 5.96751 4.75359 6.45646C4.54903 6.94542 4.44369 7.47015 4.44369 8.00017C4.44369 8.53019 4.54903 9.05493 4.75359 9.54389C4.95815 10.0328 5.25785 10.4763 5.63527 10.8484C6.0127 11.2205 6.46031 11.5139 6.95211 11.7115C7.44391 11.9092 7.97008 12.0071 8.50005 11.9996C9.56086 11.9996 10.5782 11.5782 11.3283 10.8281C12.0784 10.0779 12.4998 9.06059 12.4998 7.99977C12.4998 6.93896 12.0784 5.9216 11.3283 5.17149C10.5782 4.42138 9.56086 4.00078 8.50005 4.00078ZM8.50005 5.6007C8.81884 5.59482 9.1356 5.65253 9.43184 5.77045C9.72808 5.88838 9.99784 6.06415 10.2254 6.2875C10.4529 6.51085 10.6337 6.7773 10.7571 7.07129C10.8805 7.36529 10.9441 7.68092 10.9441 7.99977C10.9442 8.31861 10.8807 8.63427 10.7574 8.9283C10.6341 9.22233 10.4534 9.48885 10.226 9.71228C9.99849 9.9357 9.72878 10.1116 9.43258 10.2296C9.13639 10.3476 8.81964 10.4054 8.50085 10.3997C7.86436 10.3997 7.25395 10.1468 6.80388 9.69674C6.35382 9.24668 6.10097 8.63626 6.10097 7.99977C6.10097 7.36329 6.35382 6.75287 6.80388 6.3028C7.25395 5.85274 7.86436 5.5999 8.50085 5.5999L8.50005 5.6007ZM12.6998 2.80084C12.4418 2.81117 12.1977 2.92095 12.0188 3.1072C11.8398 3.29345 11.7399 3.54171 11.7399 3.79999C11.7399 4.05827 11.8398 4.30653 12.0188 4.49278C12.1977 4.67902 12.4418 4.78881 12.6998 4.79914C12.965 4.79914 13.2194 4.69379 13.4069 4.50626C13.5944 4.31873 13.6998 4.06439 13.6998 3.79919C13.6998 3.53399 13.5944 3.27965 13.4069 3.09212C13.2194 2.90459 12.965 2.79924 12.6998 2.79924V2.80084Z" fill="white"/>
</svg>
