<svg width="17" height="16" viewBox="0 0 17 16" fill="none" xmlns="http://www.w3.org/2000/svg">
<path d="M0.5 1.146C0.5 0.513 1.026 0 1.675 0H15.325C15.974 0 16.5 0.513 16.5 1.146V14.854C16.5 15.487 15.974 16 15.325 16H1.675C1.026 16 0.5 15.487 0.5 14.854V1.146ZM5.443 13.394V6.169H3.042V13.394H5.443ZM4.243 5.182C5.08 5.182 5.601 4.628 5.601 3.934C5.586 3.225 5.081 2.686 4.259 2.686C3.437 2.686 2.9 3.226 2.9 3.934C2.9 4.628 3.421 5.182 4.227 5.182H4.243ZM9.151 13.394V9.359C9.151 9.143 9.167 8.927 9.231 8.773C9.404 8.342 9.799 7.895 10.463 7.895C11.332 7.895 11.679 8.557 11.679 9.529V13.394H14.08V9.25C14.08 7.03 12.896 5.998 11.316 5.998C10.042 5.998 9.471 6.698 9.151 7.191V7.216H9.135C9.14031 7.20765 9.14564 7.19932 9.151 7.191V6.169H6.751C6.781 6.847 6.751 13.394 6.751 13.394H9.151Z" fill="white"/>
</svg>
