<svg width="20" height="24" viewBox="0 0 20 24" fill="none" xmlns="http://www.w3.org/2000/svg">
<path d="M16.7076 12.7011C16.6974 10.8316 17.543 9.42053 19.2546 8.38135C18.2969 7.01107 16.8502 6.25715 14.94 6.10943C13.1316 5.96679 11.1551 7.16389 10.4318 7.16389C9.66768 7.16389 7.91534 6.16037 6.53996 6.16037C3.6975 6.20621 0.676758 8.4272 0.676758 12.9456C0.676758 14.2802 0.92127 15.659 1.41029 17.0819C2.06233 18.9514 4.41576 23.536 6.87107 23.4596C8.15476 23.4291 9.06149 22.5478 10.7323 22.5478C12.3522 22.5478 13.1927 23.4596 14.6242 23.4596C17.0998 23.424 19.2291 19.2571 19.8506 17.3825C16.5293 15.8186 16.7076 12.7979 16.7076 12.7011ZM13.8244 4.33671C15.2151 2.68625 15.0877 1.18352 15.047 0.643555C13.8193 0.714871 12.3981 1.47897 11.5881 2.42136C10.6967 3.42998 10.172 4.67801 10.2841 6.08396C11.6136 6.18584 12.826 5.50324 13.8244 4.33671Z" fill="black"/>
</svg>
