<svg width="22" height="25" viewBox="0 0 22 25" fill="none" xmlns="http://www.w3.org/2000/svg">
<path d="M14.1932 15.6965C14.2393 15.8085 14.2539 15.9232 14.2368 16.0406C14.2232 16.1486 14.1821 16.234 14.1135 16.2967C13.3993 16.8196 12.8681 17.1607 12.5199 17.3202C11.9151 17.5972 11.3895 17.6696 10.943 17.5374C10.5027 17.4025 10.1116 17.0962 9.76984 16.6185C9.43147 16.1315 9.08471 15.4565 8.72957 14.5936C8.3663 13.7109 8.14072 12.9686 8.05281 12.3669C7.96831 11.7558 8.03848 11.2382 8.26333 10.8142C8.48818 10.3903 8.89689 10.0426 9.48947 9.77117C9.9171 9.57531 10.4821 9.42222 11.1846 9.31189L11.2345 9.30078C11.3152 9.30294 11.3932 9.33375 11.4685 9.39322C11.5499 9.44988 11.6123 9.53092 11.6557 9.63632L12.0867 10.6837C12.1437 10.8221 12.1562 10.9494 12.1242 11.0659C12.0956 11.1729 12.0355 11.2474 11.9439 11.2894C11.3181 11.4977 10.9136 11.6438 10.7303 11.7278C10.4371 11.8621 10.2528 11.97 10.1774 12.0515C10.0891 12.1545 10.0327 12.2469 10.0083 12.3286C9.98109 12.4036 9.98816 12.5179 10.0295 12.6712C10.0775 12.8762 10.2249 13.2784 10.4716 13.8779C10.6099 14.2139 10.7373 14.4882 10.8539 14.701C10.9678 14.9072 11.1048 15.0637 11.2649 15.1704C11.425 15.2772 11.6059 15.2844 11.8075 15.1921C11.872 15.1547 11.9137 15.0886 11.9328 14.9937C11.9518 14.8989 11.9397 14.7988 11.8963 14.6934L11.8272 14.5254C11.7661 14.5534 11.702 14.5475 11.6348 14.5078C11.5649 14.4615 11.511 14.3923 11.4731 14.3L11.045 13.2865C10.9962 13.1679 10.9831 13.0565 11.0055 12.9522C11.028 12.848 11.0789 12.7777 11.1583 12.7413L12.3954 12.1747C12.4809 12.1356 12.5674 12.1429 12.655 12.1968C12.7425 12.2507 12.8106 12.3369 12.8594 12.4555L14.1932 15.6965Z" fill="white"/>
<path d="M4.1178 4.24534C3.98854 4.68066 4.04545 5.14228 4.16597 5.58017L5.01081 8.65289L11.1756 6.11733L9.47897 3.39494C9.23727 3.0069 8.93376 2.6467 8.52053 2.43451C6.69591 1.49772 4.68865 2.3233 4.1178 4.24534Z" stroke="white" stroke-width="3.11276"/>
<path d="M13.2213 5.3974L3.05512 9.57873C2.49423 9.80942 2.21174 10.4862 2.4498 11.0291L7.41944 22.3608C7.65751 22.9037 7.43099 22.5915 7.99188 22.3608L19.3604 17.9126C19.9213 17.6819 19.927 17.8572 19.689 17.3144L14.7193 5.98264C14.4813 5.4398 13.7822 5.16671 13.2213 5.3974Z" stroke="white" stroke-width="3.0976"/>
</svg>
