<svg width="7" height="12" viewBox="0 0 7 12" fill="none" xmlns="http://www.w3.org/2000/svg">
<mask id="path-1-inside-1_134_20765" fill="white">
<path d="M1.33334 11.8333C1.13863 11.8337 0.949928 11.7659 0.800002 11.6416C0.71562 11.5717 0.645868 11.4858 0.594741 11.3888C0.543615 11.2919 0.512118 11.1858 0.502055 11.0766C0.491991 10.9675 0.50356 10.8574 0.536097 10.7527C0.568634 10.6481 0.6215 10.5508 0.691668 10.4666L4.425 5.99997L0.825002 1.52497C0.755781 1.43973 0.704087 1.34165 0.672894 1.23637C0.641701 1.13109 0.631623 1.02068 0.643239 0.911485C0.654855 0.802295 0.687936 0.696477 0.740581 0.600113C0.793225 0.503749 0.864396 0.41874 0.950002 0.349971C1.03622 0.274107 1.1372 0.216884 1.24658 0.181893C1.35597 0.146902 1.4714 0.134899 1.58565 0.146637C1.69989 0.158374 1.81048 0.193599 1.91046 0.2501C2.01045 0.306602 2.09767 0.38316 2.16667 0.474971L6.19167 5.47497C6.31424 5.62408 6.38124 5.81112 6.38124 6.00414C6.38124 6.19716 6.31424 6.38419 6.19167 6.53331L2.025 11.5333C1.9414 11.6342 1.83521 11.7139 1.71503 11.766C1.59486 11.8181 1.46409 11.8412 1.33334 11.8333Z"/>
</mask>
<path d="M1.33334 11.8333C1.13863 11.8337 0.949928 11.7659 0.800002 11.6416C0.71562 11.5717 0.645868 11.4858 0.594741 11.3888C0.543615 11.2919 0.512118 11.1858 0.502055 11.0766C0.491991 10.9675 0.50356 10.8574 0.536097 10.7527C0.568634 10.6481 0.6215 10.5508 0.691668 10.4666L4.425 5.99997L0.825002 1.52497C0.755781 1.43973 0.704087 1.34165 0.672894 1.23637C0.641701 1.13109 0.631623 1.02068 0.643239 0.911485C0.654855 0.802295 0.687936 0.696477 0.740581 0.600113C0.793225 0.503749 0.864396 0.41874 0.950002 0.349971C1.03622 0.274107 1.1372 0.216884 1.24658 0.181893C1.35597 0.146902 1.4714 0.134899 1.58565 0.146637C1.69989 0.158374 1.81048 0.193599 1.91046 0.2501C2.01045 0.306602 2.09767 0.38316 2.16667 0.474971L6.19167 5.47497C6.31424 5.62408 6.38124 5.81112 6.38124 6.00414C6.38124 6.19716 6.31424 6.38419 6.19167 6.53331L2.025 11.5333C1.9414 11.6342 1.83521 11.7139 1.71503 11.766C1.59486 11.8181 1.46409 11.8412 1.33334 11.8333Z" fill="#E9530D"/>
<path d="M1.33334 11.8333L1.57382 7.84054L1.44978 7.83307L1.32552 7.83331L1.33334 11.8333ZM0.800002 11.6416L-1.75296 14.721L-1.75218 14.7216L0.800002 11.6416ZM0.691668 10.4666L-2.37746 7.9014L-2.38129 7.90599L0.691668 10.4666ZM4.425 5.99997L7.49413 8.56521L9.59769 6.04845L7.54167 3.49271L4.425 5.99997ZM0.825002 1.52497L3.94167 -0.982293L3.9359 -0.989467L3.9301 -0.996615L0.825002 1.52497ZM0.950002 0.349971L3.4551 3.46838L3.52499 3.41224L3.59229 3.35302L0.950002 0.349971ZM2.16667 0.474971L-1.03104 2.87802L-0.990994 2.93131L-0.949193 2.98324L2.16667 0.474971ZM6.19167 5.47497L3.07581 7.98324L3.08863 7.99917L3.10162 8.01497L6.19167 5.47497ZM6.38124 6.00414H2.38124H6.38124ZM6.19167 6.53331L9.26455 9.09404L9.27317 9.0837L9.28172 9.07331L6.19167 6.53331ZM2.025 11.5333L-1.04789 8.97256L-1.05451 8.98054L2.025 11.5333ZM1.32552 7.83331C2.06541 7.83187 2.78246 8.08955 3.35219 8.56165L-1.75218 14.7216C-0.882603 15.4422 0.211839 15.8355 1.34115 15.8333L1.32552 7.83331ZM3.35296 8.56229C3.67363 8.82814 3.93868 9.15463 4.13295 9.52304L-2.94347 13.2546C-2.64695 13.8169 -2.24239 14.3152 -1.75296 14.721L3.35296 8.56229ZM4.13295 9.52304C4.32723 9.89147 4.44692 10.2946 4.48516 10.7094L-3.48105 11.4439C-3.42268 12.0769 -3.24 12.6922 -2.94347 13.2546L4.13295 9.52304ZM4.48516 10.7094C4.5234 11.1241 4.47944 11.5424 4.3558 11.9401L-3.28361 9.56536C-3.47232 10.1724 -3.53942 10.8108 -3.48105 11.4439L4.48516 10.7094ZM4.3558 11.9401C4.23217 12.3378 4.03128 12.7073 3.76463 13.0273L-2.38129 7.90599C-2.78828 8.3944 -3.0949 8.9583 -3.28361 9.56536L4.3558 11.9401ZM3.7608 13.0319L7.49413 8.56521L1.35587 3.43473L-2.37746 7.9014L3.7608 13.0319ZM7.54167 3.49271L3.94167 -0.982293L-2.29167 4.03224L1.30833 8.50724L7.54167 3.49271ZM3.9301 -0.996615C4.19314 -0.672704 4.38957 -0.300001 4.5081 0.100075L-3.16232 2.37266C-2.9814 2.9833 -2.68158 3.55217 -2.28009 4.04656L3.9301 -0.996615ZM4.5081 0.100075C4.62664 0.500149 4.66494 0.919706 4.62079 1.33463L-3.33432 0.488341C-3.40169 1.12165 -3.34324 1.76202 -3.16232 2.37266L4.5081 0.100075ZM4.62079 1.33463C4.57665 1.74954 4.45095 2.15165 4.25089 2.51784L-2.76973 -1.31762C-3.07508 -0.7587 -3.26694 -0.144953 -3.33432 0.488341L4.62079 1.33463ZM4.25089 2.51784C4.05084 2.88403 3.78039 3.20706 3.4551 3.46838L-1.55509 -2.76844C-2.0516 -2.36959 -2.46439 -1.87653 -2.76973 -1.31762L4.25089 2.51784ZM3.59229 3.35302C3.26465 3.6413 2.88096 3.85875 2.46529 3.99171L0.0278689 -3.62793C-0.606569 -3.42498 -1.1922 -3.09309 -1.69229 -2.65308L3.59229 3.35302ZM2.46529 3.99171C2.04962 4.12468 1.61096 4.17029 1.17684 4.12569L1.99445 -3.83242C1.33185 -3.90049 0.662312 -3.83088 0.0278689 -3.62793L2.46529 3.99171ZM1.17684 4.12569C0.742714 4.08109 0.322492 3.94724 -0.0574536 3.73253L3.87838 -3.23233C3.29846 -3.56004 2.65707 -3.76434 1.99445 -3.83242L1.17684 4.12569ZM-0.0574536 3.73253C-0.437401 3.51782 -0.768864 3.2269 -1.03104 2.87802L5.36438 -1.92808C4.96421 -2.46058 4.45829 -2.90462 3.87838 -3.23233L-0.0574536 3.73253ZM-0.949193 2.98324L3.07581 7.98324L9.30753 2.9667L5.28253 -2.0333L-0.949193 2.98324ZM3.10162 8.01497C2.63586 7.44835 2.38124 6.73761 2.38124 6.00414H10.3812C10.3812 4.88462 9.99262 3.79982 9.28172 2.93497L3.10162 8.01497ZM2.38124 6.00414C2.38124 5.27066 2.63586 4.55993 3.10162 3.9933L9.28172 9.07331C9.99262 8.20846 10.3812 7.12365 10.3812 6.00414H2.38124ZM3.11878 3.97257L-1.04788 8.97257L5.09789 14.094L9.26455 9.09404L3.11878 3.97257ZM-1.05451 8.98054C-0.736837 8.59732 -0.333298 8.29438 0.123364 8.09631L3.30671 15.4357C4.00372 15.1334 4.61965 14.671 5.10451 14.0861L-1.05451 8.98054ZM0.123364 8.09631C0.580018 7.89824 1.07694 7.81061 1.57382 7.84054L1.09285 15.8261C1.85124 15.8717 2.6097 15.738 3.30671 15.4357L0.123364 8.09631Z" fill="#E9530D" mask="url(#path-1-inside-1_134_20765)"/>
</svg>
