<svg width="17" height="16" viewBox="0 0 17 16" fill="none" xmlns="http://www.w3.org/2000/svg">
<path d="M13.8333 10.625C13.8333 10.4722 13.7569 10.3785 13.6042 10.3438C13.1389 10.2465 12.7292 10.0451 12.375 9.73958C12.0208 9.43403 11.7431 9.05556 11.5417 8.60417C11.4931 8.50694 11.4688 8.42014 11.4688 8.34375C11.4688 8.23958 11.5365 8.14931 11.6719 8.07292C11.8073 7.99653 11.9549 7.9375 12.1146 7.89583C12.2743 7.85417 12.4219 7.78299 12.5573 7.68229C12.6927 7.5816 12.7604 7.45486 12.7604 7.30208C12.7604 7.17014 12.6962 7.06076 12.5677 6.97396C12.4392 6.88715 12.3056 6.84375 12.1667 6.84375C12.0903 6.84375 11.9826 6.87153 11.8438 6.92708C11.7049 6.98264 11.5938 7.01042 11.5104 7.01042C11.4826 7.01042 11.441 7.00347 11.3854 6.98958C11.4201 6.55208 11.4375 6.15278 11.4375 5.79167C11.4375 5.25 11.3785 4.85417 11.2604 4.60417C11.0104 4.0625 10.6545 3.64062 10.1927 3.33854C9.7309 3.03646 9.20139 2.88542 8.60417 2.88542C7.22917 2.88542 6.27431 3.45833 5.73958 4.60417C5.61458 4.86806 5.55208 5.26736 5.55208 5.80208C5.55208 6.06597 5.57292 6.46181 5.61458 6.98958C5.54514 7.00347 5.49306 7.01042 5.45833 7.01042C5.38194 7.01042 5.27257 6.98264 5.13021 6.92708C4.98785 6.87153 4.88194 6.84375 4.8125 6.84375C4.67361 6.84375 4.5434 6.88715 4.42188 6.97396C4.30035 7.06076 4.23958 7.17361 4.23958 7.3125C4.23958 7.45833 4.30729 7.5816 4.44271 7.68229C4.57812 7.78299 4.72569 7.85417 4.88542 7.89583C5.04514 7.9375 5.19271 7.99653 5.32812 8.07292C5.46354 8.14931 5.53125 8.23958 5.53125 8.34375C5.53125 8.42014 5.50694 8.50694 5.45833 8.60417C5.01389 9.5625 4.32639 10.1424 3.39583 10.3438C3.24306 10.3785 3.16667 10.4722 3.16667 10.625C3.16667 10.9514 3.64583 11.191 4.60417 11.3438C4.61806 11.3785 4.63889 11.4688 4.66667 11.6146C4.69444 11.7604 4.73264 11.8663 4.78125 11.9323C4.82986 11.9983 4.90972 12.0312 5.02083 12.0312C5.11111 12.0312 5.24479 12.0139 5.42188 11.9792C5.59896 11.9444 5.73264 11.9271 5.82292 11.9271C6.06597 11.9271 6.30035 11.9792 6.52604 12.0833C6.75174 12.1875 6.94097 12.3003 7.09375 12.4219C7.24653 12.5434 7.44618 12.6562 7.69271 12.7604C7.93924 12.8646 8.20486 12.9167 8.48958 12.9167C8.78819 12.9167 9.0625 12.8646 9.3125 12.7604C9.5625 12.6562 9.76215 12.5434 9.91146 12.4219C10.0608 12.3003 10.2483 12.1875 10.474 12.0833C10.6997 11.9792 10.934 11.9271 11.1771 11.9271C11.2674 11.9271 11.4028 11.9427 11.5833 11.974C11.7639 12.0052 11.8993 12.0208 11.9896 12.0208C12.0938 12.0208 12.1719 11.9878 12.224 11.9219C12.276 11.8559 12.316 11.7483 12.3438 11.599C12.3715 11.4497 12.3889 11.3646 12.3958 11.3438C13.3542 11.191 13.8333 10.9514 13.8333 10.625ZM16.5 3V13C16.5 13.8264 16.2066 14.533 15.6198 15.1198C15.033 15.7066 14.3264 16 13.5 16H3.5C2.67361 16 1.96701 15.7066 1.38021 15.1198C0.793403 14.533 0.5 13.8264 0.5 13V3C0.5 2.17361 0.793403 1.46701 1.38021 0.880208C1.96701 0.293403 2.67361 0 3.5 0H13.5C14.3264 0 15.033 0.293403 15.6198 0.880208C16.2066 1.46701 16.5 2.17361 16.5 3Z" fill="white"/>
</svg>
