<svg width="27" height="26" viewBox="0 0 27 26" fill="none" xmlns="http://www.w3.org/2000/svg">
<path d="M22.7948 2.03381C20.5712 0.72225 17.6357 0 14.5294 0H11.9706C8.86431 0 5.92881 0.72225 3.70519 2.03381C1.31587 3.44306 0 5.37387 0 7.47056V8.47056H26.5V7.47056C26.5 5.37387 25.1841 3.44306 22.7948 2.03381ZM2.175 6.47056C3.05956 3.963 7.18656 2 11.9707 2H14.5296C19.3137 2 23.4407 3.963 24.3253 6.47056H2.175ZM0 15.4706H26.5V17.4706H0V15.4706ZM21.2 10.473C19.6509 10.473 18.8394 10.8558 18.1233 11.1936C17.4962 11.4894 17.0008 11.723 15.8998 11.723C14.7988 11.723 14.3036 11.4894 13.6764 11.1936C12.9604 10.8561 12.1489 10.473 10.5999 10.473C9.05088 10.473 8.23931 10.8558 7.52331 11.1936C6.89625 11.4894 6.401 11.723 5.30006 11.723C4.19912 11.723 3.70381 11.4894 3.07675 11.1936C2.36075 10.8561 1.54919 10.473 0.000187397 10.473V12.473C1.10112 12.473 1.59644 12.7066 2.2235 13.0024C2.9395 13.3399 3.75106 13.723 5.30006 13.723C6.84906 13.723 7.66056 13.3402 8.37656 13.0024C9.00362 12.7066 9.49894 12.473 10.5999 12.473C11.7008 12.473 12.1961 12.7066 12.8232 13.0024C13.5393 13.3399 14.3507 13.723 15.8998 13.723C17.4489 13.723 18.2604 13.3402 18.9765 13.0024C19.6036 12.7066 20.0989 12.473 21.2 12.473C22.3011 12.473 22.7964 12.7066 23.4235 13.0024C24.1396 13.3399 24.9511 13.723 26.5002 13.723V11.723C25.3991 11.723 24.9038 11.4894 24.2767 11.1936C23.5604 10.8558 22.7489 10.473 21.2 10.473ZM0 24.4706C0.000463153 24.8682 0.158647 25.2495 0.439851 25.5307C0.721056 25.8119 1.10232 25.9701 1.5 25.9706H25C25.3977 25.9701 25.7789 25.8119 26.0601 25.5307C26.3414 25.2495 26.4995 24.8682 26.5 24.4706V19.4706H0V24.4706ZM2 21.4706H24.5V23.9706H2V21.4706Z" fill="#ED1D25"/>
</svg>
