<svg width="27" height="27" viewBox="0 0 27 27" fill="none" xmlns="http://www.w3.org/2000/svg">
<path d="M13.3333 26.7C11.4889 26.7 9.75556 26.3498 8.13333 25.6493C6.51111 24.9489 5.1 23.9991 3.9 22.8C2.7 21.6 1.75022 20.1889 1.05067 18.5667C0.351111 16.9444 0.000888889 15.2111 0 13.3667C0 11.7 0.322222 10.0667 0.966667 8.46667C1.61111 6.86667 2.51111 5.43867 3.66667 4.18267C4.82222 2.92756 6.21111 1.91645 7.83333 1.14933C9.45555 0.382223 11.2333 -0.000887346 13.1667 1.54321e-06C13.6333 1.54321e-06 14.1111 0.0222239 14.6 0.0666683C15.0889 0.111113 15.5889 0.18889 16.1 0.300002C15.9 1.3 15.9667 2.24445 16.3 3.13333C16.6333 4.02222 17.1333 4.76089 17.8 5.34933C18.4667 5.93867 19.2613 6.34445 20.184 6.56667C21.1067 6.78889 22.0564 6.73334 23.0333 6.4C22.4556 7.71111 22.5391 8.96667 23.284 10.1667C24.0289 11.3667 25.1342 11.9889 26.6 12.0333C26.6222 12.2778 26.6391 12.5053 26.6507 12.716C26.6622 12.9267 26.6676 13.1547 26.6667 13.4C26.6667 15.2222 26.3164 16.9387 25.616 18.5493C24.9156 20.16 23.9658 21.5711 22.7667 22.7827C21.5667 23.9942 20.1556 24.9498 18.5333 25.6493C16.9111 26.3489 15.1778 26.6991 13.3333 26.7ZM11.3333 10.7C11.8889 10.7 12.3613 10.5053 12.7507 10.116C13.14 9.72667 13.3342 9.25467 13.3333 8.7C13.3333 8.14445 13.1387 7.672 12.7493 7.28267C12.36 6.89333 11.888 6.69911 11.3333 6.7C10.7778 6.7 10.3053 6.89467 9.916 7.284C9.52667 7.67334 9.33244 8.14534 9.33333 8.7C9.33333 9.25556 9.528 9.728 9.91733 10.1173C10.3067 10.5067 10.7787 10.7009 11.3333 10.7ZM8.66667 17.3667C9.22222 17.3667 9.69467 17.172 10.084 16.7827C10.4733 16.3933 10.6676 15.9213 10.6667 15.3667C10.6667 14.8111 10.472 14.3387 10.0827 13.9493C9.69333 13.56 9.22133 13.3658 8.66667 13.3667C8.11111 13.3667 7.63867 13.5613 7.24933 13.9507C6.86 14.34 6.66578 14.812 6.66667 15.3667C6.66667 15.9222 6.86133 16.3947 7.25067 16.784C7.64 17.1733 8.112 17.3676 8.66667 17.3667ZM17.3333 18.7C17.7111 18.7 18.028 18.572 18.284 18.316C18.54 18.06 18.6676 17.7436 18.6667 17.3667C18.6667 16.9889 18.5387 16.672 18.2827 16.416C18.0267 16.16 17.7102 16.0324 17.3333 16.0333C16.9556 16.0333 16.6387 16.1613 16.3827 16.4173C16.1267 16.6733 15.9991 16.9898 16 17.3667C16 17.7444 16.128 18.0613 16.384 18.3173C16.64 18.5733 16.9564 18.7009 17.3333 18.7ZM13.3333 24.0333C16.0444 24.0333 18.4502 23.1 20.5507 21.2333C22.6511 19.3667 23.8009 16.9889 24 14.1C22.8889 13.6111 22.0164 12.9444 21.3827 12.1C20.7489 11.2556 20.3213 10.3111 20.1 9.26667C18.3889 9.02222 16.9222 8.28889 15.7 7.06667C14.4778 5.84445 13.7222 4.37778 13.4333 2.66667C11.6556 2.62222 10.0942 2.94445 8.74933 3.63333C7.40445 4.32222 6.28267 5.20578 5.384 6.284C4.48267 7.36134 3.804 8.53333 3.348 9.8C2.892 11.0667 2.66489 12.2556 2.66667 13.3667C2.66667 16.3222 3.70533 18.8391 5.78267 20.9173C7.86 22.9956 10.3769 24.0342 13.3333 24.0333Z" fill="#CF8900"/>
</svg>
